<mxfile host="65bd71144e">
    <diagram id="R2lEEEUBdFMjLlhIrx00" name="Page-1">
        <mxGraphModel dx="764" dy="381" grid="1" gridSize="10" guides="1" tooltips="1" connect="1" arrows="1" fold="1" page="1" pageScale="1" pageWidth="850" pageHeight="1100" math="0" shadow="0" extFonts="Permanent Marker^https://fonts.googleapis.com/css?family=Permanent+Marker">
            <root>
                <mxCell id="0"/>
                <mxCell id="1" parent="0"/>
                <mxCell id="C-vyLk0tnHw3VtMMgP7b-2" value="Scrambles" style="shape=table;startSize=30;container=1;collapsible=1;childLayout=tableLayout;fixedRows=1;rowLines=0;fontStyle=1;align=center;resizeLast=1;" parent="1" vertex="1">
                    <mxGeometry x="450" y="120" width="250" height="120" as="geometry"/>
                </mxCell>
                <mxCell id="C-vyLk0tnHw3VtMMgP7b-3" value="" style="shape=partialRectangle;collapsible=0;dropTarget=0;pointerEvents=0;fillColor=none;points=[[0,0.5],[1,0.5]];portConstraint=eastwest;top=0;left=0;right=0;bottom=1;" parent="C-vyLk0tnHw3VtMMgP7b-2" vertex="1">
                    <mxGeometry y="30" width="250" height="30" as="geometry"/>
                </mxCell>
                <mxCell id="C-vyLk0tnHw3VtMMgP7b-4" value="PK" style="shape=partialRectangle;overflow=hidden;connectable=0;fillColor=none;top=0;left=0;bottom=0;right=0;fontStyle=1;" parent="C-vyLk0tnHw3VtMMgP7b-3" vertex="1">
                    <mxGeometry width="30" height="30" as="geometry"/>
                </mxCell>
                <mxCell id="C-vyLk0tnHw3VtMMgP7b-5" value="id ID" style="shape=partialRectangle;overflow=hidden;connectable=0;fillColor=none;top=0;left=0;bottom=0;right=0;align=left;spacingLeft=6;fontStyle=5;" parent="C-vyLk0tnHw3VtMMgP7b-3" vertex="1">
                    <mxGeometry x="30" width="220" height="30" as="geometry"/>
                </mxCell>
                <mxCell id="C-vyLk0tnHw3VtMMgP7b-6" value="" style="shape=partialRectangle;collapsible=0;dropTarget=0;pointerEvents=0;fillColor=none;points=[[0,0.5],[1,0.5]];portConstraint=eastwest;top=0;left=0;right=0;bottom=0;" parent="C-vyLk0tnHw3VtMMgP7b-2" vertex="1">
                    <mxGeometry y="60" width="250" height="30" as="geometry"/>
                </mxCell>
                <mxCell id="C-vyLk0tnHw3VtMMgP7b-7" value="" style="shape=partialRectangle;overflow=hidden;connectable=0;fillColor=none;top=0;left=0;bottom=0;right=0;" parent="C-vyLk0tnHw3VtMMgP7b-6" vertex="1">
                    <mxGeometry width="30" height="30" as="geometry"/>
                </mxCell>
                <mxCell id="C-vyLk0tnHw3VtMMgP7b-8" value="event_id ID" style="shape=partialRectangle;overflow=hidden;connectable=0;fillColor=none;top=0;left=0;bottom=0;right=0;align=left;spacingLeft=6;" parent="C-vyLk0tnHw3VtMMgP7b-6" vertex="1">
                    <mxGeometry x="30" width="220" height="30" as="geometry"/>
                </mxCell>
                <mxCell id="57" value="" style="shape=partialRectangle;collapsible=0;dropTarget=0;pointerEvents=0;fillColor=none;points=[[0,0.5],[1,0.5]];portConstraint=eastwest;top=0;left=0;right=0;bottom=0;" vertex="1" parent="C-vyLk0tnHw3VtMMgP7b-2">
                    <mxGeometry y="90" width="250" height="30" as="geometry"/>
                </mxCell>
                <mxCell id="58" value="" style="shape=partialRectangle;overflow=hidden;connectable=0;fillColor=none;top=0;left=0;bottom=0;right=0;" vertex="1" parent="57">
                    <mxGeometry width="30" height="30" as="geometry"/>
                </mxCell>
                <mxCell id="59" value="scramble String" style="shape=partialRectangle;overflow=hidden;connectable=0;fillColor=none;top=0;left=0;bottom=0;right=0;align=left;spacingLeft=6;" vertex="1" parent="57">
                    <mxGeometry x="30" width="220" height="30" as="geometry"/>
                </mxCell>
                <mxCell id="C-vyLk0tnHw3VtMMgP7b-13" value="Users" style="shape=table;startSize=30;container=1;collapsible=1;childLayout=tableLayout;fixedRows=1;rowLines=0;fontStyle=1;align=center;resizeLast=1;" parent="1" vertex="1">
                    <mxGeometry x="450" y="270" width="250" height="160" as="geometry"/>
                </mxCell>
                <mxCell id="C-vyLk0tnHw3VtMMgP7b-14" value="" style="shape=partialRectangle;collapsible=0;dropTarget=0;pointerEvents=0;fillColor=none;points=[[0,0.5],[1,0.5]];portConstraint=eastwest;top=0;left=0;right=0;bottom=1;" parent="C-vyLk0tnHw3VtMMgP7b-13" vertex="1">
                    <mxGeometry y="30" width="250" height="30" as="geometry"/>
                </mxCell>
                <mxCell id="C-vyLk0tnHw3VtMMgP7b-15" value="PK" style="shape=partialRectangle;overflow=hidden;connectable=0;fillColor=none;top=0;left=0;bottom=0;right=0;fontStyle=1;" parent="C-vyLk0tnHw3VtMMgP7b-14" vertex="1">
                    <mxGeometry width="30" height="30" as="geometry"/>
                </mxCell>
                <mxCell id="C-vyLk0tnHw3VtMMgP7b-16" value="id ID" style="shape=partialRectangle;overflow=hidden;connectable=0;fillColor=none;top=0;left=0;bottom=0;right=0;align=left;spacingLeft=6;fontStyle=5;" parent="C-vyLk0tnHw3VtMMgP7b-14" vertex="1">
                    <mxGeometry x="30" width="220" height="30" as="geometry"/>
                </mxCell>
                <mxCell id="C-vyLk0tnHw3VtMMgP7b-17" value="" style="shape=partialRectangle;collapsible=0;dropTarget=0;pointerEvents=0;fillColor=none;points=[[0,0.5],[1,0.5]];portConstraint=eastwest;top=0;left=0;right=0;bottom=0;" parent="C-vyLk0tnHw3VtMMgP7b-13" vertex="1">
                    <mxGeometry y="60" width="250" height="30" as="geometry"/>
                </mxCell>
                <mxCell id="C-vyLk0tnHw3VtMMgP7b-18" value="" style="shape=partialRectangle;overflow=hidden;connectable=0;fillColor=none;top=0;left=0;bottom=0;right=0;" parent="C-vyLk0tnHw3VtMMgP7b-17" vertex="1">
                    <mxGeometry width="30" height="30" as="geometry"/>
                </mxCell>
                <mxCell id="C-vyLk0tnHw3VtMMgP7b-19" value="username String" style="shape=partialRectangle;overflow=hidden;connectable=0;fillColor=none;top=0;left=0;bottom=0;right=0;align=left;spacingLeft=6;" parent="C-vyLk0tnHw3VtMMgP7b-17" vertex="1">
                    <mxGeometry x="30" width="220" height="30" as="geometry"/>
                </mxCell>
                <mxCell id="60" value="" style="shape=partialRectangle;collapsible=0;dropTarget=0;pointerEvents=0;fillColor=none;points=[[0,0.5],[1,0.5]];portConstraint=eastwest;top=0;left=0;right=0;bottom=0;" vertex="1" parent="C-vyLk0tnHw3VtMMgP7b-13">
                    <mxGeometry y="90" width="250" height="30" as="geometry"/>
                </mxCell>
                <mxCell id="61" value="" style="shape=partialRectangle;overflow=hidden;connectable=0;fillColor=none;top=0;left=0;bottom=0;right=0;" vertex="1" parent="60">
                    <mxGeometry width="30" height="30" as="geometry"/>
                </mxCell>
                <mxCell id="62" value="pre_results [PreResults]" style="shape=partialRectangle;overflow=hidden;connectable=0;fillColor=none;top=0;left=0;bottom=0;right=0;align=left;spacingLeft=6;" vertex="1" parent="60">
                    <mxGeometry x="30" width="220" height="30" as="geometry"/>
                </mxCell>
                <mxCell id="63" value="" style="shape=partialRectangle;collapsible=0;dropTarget=0;pointerEvents=0;fillColor=none;points=[[0,0.5],[1,0.5]];portConstraint=eastwest;top=0;left=0;right=0;bottom=0;" vertex="1" parent="C-vyLk0tnHw3VtMMgP7b-13">
                    <mxGeometry y="120" width="250" height="30" as="geometry"/>
                </mxCell>
                <mxCell id="64" value="" style="shape=partialRectangle;overflow=hidden;connectable=0;fillColor=none;top=0;left=0;bottom=0;right=0;" vertex="1" parent="63">
                    <mxGeometry width="30" height="30" as="geometry"/>
                </mxCell>
                <mxCell id="65" value="results [Results]" style="shape=partialRectangle;overflow=hidden;connectable=0;fillColor=none;top=0;left=0;bottom=0;right=0;align=left;spacingLeft=6;" vertex="1" parent="63">
                    <mxGeometry x="30" width="220" height="30" as="geometry"/>
                </mxCell>
                <mxCell id="C-vyLk0tnHw3VtMMgP7b-23" value="Contests" style="shape=table;startSize=30;container=1;collapsible=1;childLayout=tableLayout;fixedRows=1;rowLines=0;fontStyle=1;align=center;resizeLast=1;" parent="1" vertex="1">
                    <mxGeometry x="120" y="120" width="250" height="280" as="geometry"/>
                </mxCell>
                <mxCell id="C-vyLk0tnHw3VtMMgP7b-24" value="" style="shape=partialRectangle;collapsible=0;dropTarget=0;pointerEvents=0;fillColor=none;points=[[0,0.5],[1,0.5]];portConstraint=eastwest;top=0;left=0;right=0;bottom=1;" parent="C-vyLk0tnHw3VtMMgP7b-23" vertex="1">
                    <mxGeometry y="30" width="250" height="30" as="geometry"/>
                </mxCell>
                <mxCell id="C-vyLk0tnHw3VtMMgP7b-25" value="PK" style="shape=partialRectangle;overflow=hidden;connectable=0;fillColor=none;top=0;left=0;bottom=0;right=0;fontStyle=1;" parent="C-vyLk0tnHw3VtMMgP7b-24" vertex="1">
                    <mxGeometry width="30" height="30" as="geometry"/>
                </mxCell>
                <mxCell id="C-vyLk0tnHw3VtMMgP7b-26" value="contest_type String" style="shape=partialRectangle;overflow=hidden;connectable=0;fillColor=none;top=0;left=0;bottom=0;right=0;align=left;spacingLeft=6;fontStyle=5;" parent="C-vyLk0tnHw3VtMMgP7b-24" vertex="1">
                    <mxGeometry x="30" width="220" height="30" as="geometry"/>
                </mxCell>
                <mxCell id="20" value="" style="shape=partialRectangle;collapsible=0;dropTarget=0;pointerEvents=0;fillColor=none;points=[[0,0.5],[1,0.5]];portConstraint=eastwest;top=0;left=0;right=0;bottom=1;" vertex="1" parent="C-vyLk0tnHw3VtMMgP7b-23">
                    <mxGeometry y="60" width="250" height="30" as="geometry"/>
                </mxCell>
                <mxCell id="21" value="SK" style="shape=partialRectangle;overflow=hidden;connectable=0;fillColor=none;top=0;left=0;bottom=0;right=0;fontStyle=1;" vertex="1" parent="20">
                    <mxGeometry width="30" height="30" as="geometry"/>
                </mxCell>
                <mxCell id="22" value="id ID" style="shape=partialRectangle;overflow=hidden;connectable=0;fillColor=none;top=0;left=0;bottom=0;right=0;align=left;spacingLeft=6;fontStyle=5;" vertex="1" parent="20">
                    <mxGeometry x="30" width="220" height="30" as="geometry"/>
                </mxCell>
                <mxCell id="C-vyLk0tnHw3VtMMgP7b-27" value="" style="shape=partialRectangle;collapsible=0;dropTarget=0;pointerEvents=0;fillColor=none;points=[[0,0.5],[1,0.5]];portConstraint=eastwest;top=0;left=0;right=0;bottom=0;" parent="C-vyLk0tnHw3VtMMgP7b-23" vertex="1">
                    <mxGeometry y="90" width="250" height="30" as="geometry"/>
                </mxCell>
                <mxCell id="C-vyLk0tnHw3VtMMgP7b-28" value="" style="shape=partialRectangle;overflow=hidden;connectable=0;fillColor=none;top=0;left=0;bottom=0;right=0;" parent="C-vyLk0tnHw3VtMMgP7b-27" vertex="1">
                    <mxGeometry width="30" height="30" as="geometry"/>
                </mxCell>
                <mxCell id="C-vyLk0tnHw3VtMMgP7b-29" value="contest_number String" style="shape=partialRectangle;overflow=hidden;connectable=0;fillColor=none;top=0;left=0;bottom=0;right=0;align=left;spacingLeft=6;" parent="C-vyLk0tnHw3VtMMgP7b-27" vertex="1">
                    <mxGeometry x="30" width="220" height="30" as="geometry"/>
                </mxCell>
                <mxCell id="5F1so2sVHpjkK_AZKTsR-9" value="" style="shape=partialRectangle;collapsible=0;dropTarget=0;pointerEvents=0;fillColor=none;points=[[0,0.5],[1,0.5]];portConstraint=eastwest;top=0;left=0;right=0;bottom=0;" parent="C-vyLk0tnHw3VtMMgP7b-23" vertex="1">
                    <mxGeometry y="120" width="250" height="30" as="geometry"/>
                </mxCell>
                <mxCell id="5F1so2sVHpjkK_AZKTsR-10" value="GSI" style="shape=partialRectangle;overflow=hidden;connectable=0;fillColor=none;top=0;left=0;bottom=0;right=0;" parent="5F1so2sVHpjkK_AZKTsR-9" vertex="1">
                    <mxGeometry width="30" height="30" as="geometry"/>
                </mxCell>
                <mxCell id="5F1so2sVHpjkK_AZKTsR-11" value="current_flag Int" style="shape=partialRectangle;overflow=hidden;connectable=0;fillColor=none;top=0;left=0;bottom=0;right=0;align=left;spacingLeft=6;" parent="5F1so2sVHpjkK_AZKTsR-9" vertex="1">
                    <mxGeometry x="30" width="220" height="30" as="geometry"/>
                </mxCell>
                <mxCell id="5F1so2sVHpjkK_AZKTsR-12" value="" style="shape=partialRectangle;collapsible=0;dropTarget=0;pointerEvents=0;fillColor=none;points=[[0,0.5],[1,0.5]];portConstraint=eastwest;top=0;left=0;right=0;bottom=0;" parent="C-vyLk0tnHw3VtMMgP7b-23" vertex="1">
                    <mxGeometry y="150" width="250" height="30" as="geometry"/>
                </mxCell>
                <mxCell id="5F1so2sVHpjkK_AZKTsR-13" value="" style="shape=partialRectangle;overflow=hidden;connectable=0;fillColor=none;top=0;left=0;bottom=0;right=0;" parent="5F1so2sVHpjkK_AZKTsR-12" vertex="1">
                    <mxGeometry width="30" height="30" as="geometry"/>
                </mxCell>
                <mxCell id="5F1so2sVHpjkK_AZKTsR-14" value="start_date String" style="shape=partialRectangle;overflow=hidden;connectable=0;fillColor=none;top=0;left=0;bottom=0;right=0;align=left;spacingLeft=6;" parent="5F1so2sVHpjkK_AZKTsR-12" vertex="1">
                    <mxGeometry x="30" width="220" height="30" as="geometry"/>
                </mxCell>
                <mxCell id="5F1so2sVHpjkK_AZKTsR-15" value="" style="shape=partialRectangle;collapsible=0;dropTarget=0;pointerEvents=0;fillColor=none;points=[[0,0.5],[1,0.5]];portConstraint=eastwest;top=0;left=0;right=0;bottom=0;" parent="C-vyLk0tnHw3VtMMgP7b-23" vertex="1">
                    <mxGeometry y="180" width="250" height="30" as="geometry"/>
                </mxCell>
                <mxCell id="5F1so2sVHpjkK_AZKTsR-16" value="" style="shape=partialRectangle;overflow=hidden;connectable=0;fillColor=none;top=0;left=0;bottom=0;right=0;" parent="5F1so2sVHpjkK_AZKTsR-15" vertex="1">
                    <mxGeometry width="30" height="30" as="geometry"/>
                </mxCell>
                <mxCell id="5F1so2sVHpjkK_AZKTsR-17" value="end_date String" style="shape=partialRectangle;overflow=hidden;connectable=0;fillColor=none;top=0;left=0;bottom=0;right=0;align=left;spacingLeft=6;" parent="5F1so2sVHpjkK_AZKTsR-15" vertex="1">
                    <mxGeometry x="30" width="220" height="30" as="geometry"/>
                </mxCell>
                <mxCell id="23" value="" style="shape=partialRectangle;collapsible=0;dropTarget=0;pointerEvents=0;fillColor=none;points=[[0,0.5],[1,0.5]];portConstraint=eastwest;top=0;left=0;right=0;bottom=0;" vertex="1" parent="C-vyLk0tnHw3VtMMgP7b-23">
                    <mxGeometry y="210" width="250" height="30" as="geometry"/>
                </mxCell>
                <mxCell id="24" value="" style="shape=partialRectangle;overflow=hidden;connectable=0;fillColor=none;top=0;left=0;bottom=0;right=0;" vertex="1" parent="23">
                    <mxGeometry width="30" height="30" as="geometry"/>
                </mxCell>
                <mxCell id="25" value="contest_type String" style="shape=partialRectangle;overflow=hidden;connectable=0;fillColor=none;top=0;left=0;bottom=0;right=0;align=left;spacingLeft=6;" vertex="1" parent="23">
                    <mxGeometry x="30" width="220" height="30" as="geometry"/>
                </mxCell>
                <mxCell id="48" value="" style="shape=partialRectangle;collapsible=0;dropTarget=0;pointerEvents=0;fillColor=none;points=[[0,0.5],[1,0.5]];portConstraint=eastwest;top=0;left=0;right=0;bottom=0;" vertex="1" parent="C-vyLk0tnHw3VtMMgP7b-23">
                    <mxGeometry y="240" width="250" height="30" as="geometry"/>
                </mxCell>
                <mxCell id="49" value="" style="shape=partialRectangle;overflow=hidden;connectable=0;fillColor=none;top=0;left=0;bottom=0;right=0;" vertex="1" parent="48">
                    <mxGeometry width="30" height="30" as="geometry"/>
                </mxCell>
                <mxCell id="50" value="events [Events]" style="shape=partialRectangle;overflow=hidden;connectable=0;fillColor=none;top=0;left=0;bottom=0;right=0;align=left;spacingLeft=6;" vertex="1" parent="48">
                    <mxGeometry x="30" width="220" height="30" as="geometry"/>
                </mxCell>
                <mxCell id="5F1so2sVHpjkK_AZKTsR-37" value="PreResults" style="shape=table;startSize=30;container=1;collapsible=1;childLayout=tableLayout;fixedRows=1;rowLines=0;fontStyle=1;align=center;resizeLast=1;" parent="1" vertex="1">
                    <mxGeometry x="450" y="470" width="250" height="280" as="geometry"/>
                </mxCell>
                <mxCell id="5F1so2sVHpjkK_AZKTsR-38" value="" style="shape=partialRectangle;collapsible=0;dropTarget=0;pointerEvents=0;fillColor=none;points=[[0,0.5],[1,0.5]];portConstraint=eastwest;top=0;left=0;right=0;bottom=1;" parent="5F1so2sVHpjkK_AZKTsR-37" vertex="1">
                    <mxGeometry y="30" width="250" height="30" as="geometry"/>
                </mxCell>
                <mxCell id="5F1so2sVHpjkK_AZKTsR-39" value="PK" style="shape=partialRectangle;overflow=hidden;connectable=0;fillColor=none;top=0;left=0;bottom=0;right=0;fontStyle=1;" parent="5F1so2sVHpjkK_AZKTsR-38" vertex="1">
                    <mxGeometry width="30" height="30" as="geometry"/>
                </mxCell>
                <mxCell id="5F1so2sVHpjkK_AZKTsR-40" value="event_type String" style="shape=partialRectangle;overflow=hidden;connectable=0;fillColor=none;top=0;left=0;bottom=0;right=0;align=left;spacingLeft=6;fontStyle=5;" parent="5F1so2sVHpjkK_AZKTsR-38" vertex="1">
                    <mxGeometry x="30" width="220" height="30" as="geometry"/>
                </mxCell>
                <mxCell id="5F1so2sVHpjkK_AZKTsR-47" value="" style="shape=partialRectangle;collapsible=0;dropTarget=0;pointerEvents=0;fillColor=none;points=[[0,0.5],[1,0.5]];portConstraint=eastwest;top=0;left=0;right=0;bottom=1;" parent="5F1so2sVHpjkK_AZKTsR-37" vertex="1">
                    <mxGeometry y="60" width="250" height="30" as="geometry"/>
                </mxCell>
                <mxCell id="5F1so2sVHpjkK_AZKTsR-48" value="SK" style="shape=partialRectangle;overflow=hidden;connectable=0;fillColor=none;top=0;left=0;bottom=0;right=0;fontStyle=1;" parent="5F1so2sVHpjkK_AZKTsR-47" vertex="1">
                    <mxGeometry width="30" height="30" as="geometry"/>
                </mxCell>
                <mxCell id="5F1so2sVHpjkK_AZKTsR-49" value="user_id ID" style="shape=partialRectangle;overflow=hidden;connectable=0;fillColor=none;top=0;left=0;bottom=0;right=0;align=left;spacingLeft=6;fontStyle=5;" parent="5F1so2sVHpjkK_AZKTsR-47" vertex="1">
                    <mxGeometry x="30" width="220" height="30" as="geometry"/>
                </mxCell>
                <mxCell id="5F1so2sVHpjkK_AZKTsR-41" value="" style="shape=partialRectangle;collapsible=0;dropTarget=0;pointerEvents=0;fillColor=none;points=[[0,0.5],[1,0.5]];portConstraint=eastwest;top=0;left=0;right=0;bottom=0;" parent="5F1so2sVHpjkK_AZKTsR-37" vertex="1">
                    <mxGeometry y="90" width="250" height="30" as="geometry"/>
                </mxCell>
                <mxCell id="5F1so2sVHpjkK_AZKTsR-42" value="" style="shape=partialRectangle;overflow=hidden;connectable=0;fillColor=none;top=0;left=0;bottom=0;right=0;" parent="5F1so2sVHpjkK_AZKTsR-41" vertex="1">
                    <mxGeometry width="30" height="30" as="geometry"/>
                </mxCell>
                <mxCell id="5F1so2sVHpjkK_AZKTsR-43" value="no1 ResultSchema" style="shape=partialRectangle;overflow=hidden;connectable=0;fillColor=none;top=0;left=0;bottom=0;right=0;align=left;spacingLeft=6;" parent="5F1so2sVHpjkK_AZKTsR-41" vertex="1">
                    <mxGeometry x="30" width="220" height="30" as="geometry"/>
                </mxCell>
                <mxCell id="5F1so2sVHpjkK_AZKTsR-44" value="" style="shape=partialRectangle;collapsible=0;dropTarget=0;pointerEvents=0;fillColor=none;points=[[0,0.5],[1,0.5]];portConstraint=eastwest;top=0;left=0;right=0;bottom=0;" parent="5F1so2sVHpjkK_AZKTsR-37" vertex="1">
                    <mxGeometry y="120" width="250" height="30" as="geometry"/>
                </mxCell>
                <mxCell id="5F1so2sVHpjkK_AZKTsR-45" value="OP" style="shape=partialRectangle;overflow=hidden;connectable=0;fillColor=none;top=0;left=0;bottom=0;right=0;" parent="5F1so2sVHpjkK_AZKTsR-44" vertex="1">
                    <mxGeometry width="30" height="30" as="geometry"/>
                </mxCell>
                <mxCell id="5F1so2sVHpjkK_AZKTsR-46" value="no2 ResultSchema" style="shape=partialRectangle;overflow=hidden;connectable=0;fillColor=none;top=0;left=0;bottom=0;right=0;align=left;spacingLeft=6;" parent="5F1so2sVHpjkK_AZKTsR-44" vertex="1">
                    <mxGeometry x="30" width="220" height="30" as="geometry"/>
                </mxCell>
                <mxCell id="5F1so2sVHpjkK_AZKTsR-51" value="" style="shape=partialRectangle;collapsible=0;dropTarget=0;pointerEvents=0;fillColor=none;points=[[0,0.5],[1,0.5]];portConstraint=eastwest;top=0;left=0;right=0;bottom=0;" parent="5F1so2sVHpjkK_AZKTsR-37" vertex="1">
                    <mxGeometry y="150" width="250" height="30" as="geometry"/>
                </mxCell>
                <mxCell id="5F1so2sVHpjkK_AZKTsR-52" value="OP" style="shape=partialRectangle;overflow=hidden;connectable=0;fillColor=none;top=0;left=0;bottom=0;right=0;" parent="5F1so2sVHpjkK_AZKTsR-51" vertex="1">
                    <mxGeometry width="30" height="30" as="geometry"/>
                </mxCell>
                <mxCell id="5F1so2sVHpjkK_AZKTsR-53" value="no3 ResultSchema" style="shape=partialRectangle;overflow=hidden;connectable=0;fillColor=none;top=0;left=0;bottom=0;right=0;align=left;spacingLeft=6;" parent="5F1so2sVHpjkK_AZKTsR-51" vertex="1">
                    <mxGeometry x="30" width="220" height="30" as="geometry"/>
                </mxCell>
                <mxCell id="5F1so2sVHpjkK_AZKTsR-54" value="" style="shape=partialRectangle;collapsible=0;dropTarget=0;pointerEvents=0;fillColor=none;points=[[0,0.5],[1,0.5]];portConstraint=eastwest;top=0;left=0;right=0;bottom=0;" parent="5F1so2sVHpjkK_AZKTsR-37" vertex="1">
                    <mxGeometry y="180" width="250" height="30" as="geometry"/>
                </mxCell>
                <mxCell id="5F1so2sVHpjkK_AZKTsR-55" value="OP" style="shape=partialRectangle;overflow=hidden;connectable=0;fillColor=none;top=0;left=0;bottom=0;right=0;" parent="5F1so2sVHpjkK_AZKTsR-54" vertex="1">
                    <mxGeometry width="30" height="30" as="geometry"/>
                </mxCell>
                <mxCell id="5F1so2sVHpjkK_AZKTsR-56" value="no4 ResultSchema" style="shape=partialRectangle;overflow=hidden;connectable=0;fillColor=none;top=0;left=0;bottom=0;right=0;align=left;spacingLeft=6;" parent="5F1so2sVHpjkK_AZKTsR-54" vertex="1">
                    <mxGeometry x="30" width="220" height="30" as="geometry"/>
                </mxCell>
                <mxCell id="5F1so2sVHpjkK_AZKTsR-57" value="" style="shape=partialRectangle;collapsible=0;dropTarget=0;pointerEvents=0;fillColor=none;points=[[0,0.5],[1,0.5]];portConstraint=eastwest;top=0;left=0;right=0;bottom=0;" parent="5F1so2sVHpjkK_AZKTsR-37" vertex="1">
                    <mxGeometry y="210" width="250" height="30" as="geometry"/>
                </mxCell>
                <mxCell id="5F1so2sVHpjkK_AZKTsR-58" value="OP" style="shape=partialRectangle;overflow=hidden;connectable=0;fillColor=none;top=0;left=0;bottom=0;right=0;" parent="5F1so2sVHpjkK_AZKTsR-57" vertex="1">
                    <mxGeometry width="30" height="30" as="geometry"/>
                </mxCell>
                <mxCell id="5F1so2sVHpjkK_AZKTsR-59" value="no5 ResultSchema" style="shape=partialRectangle;overflow=hidden;connectable=0;fillColor=none;top=0;left=0;bottom=0;right=0;align=left;spacingLeft=6;" parent="5F1so2sVHpjkK_AZKTsR-57" vertex="1">
                    <mxGeometry x="30" width="220" height="30" as="geometry"/>
                </mxCell>
                <mxCell id="54" value="" style="shape=partialRectangle;collapsible=0;dropTarget=0;pointerEvents=0;fillColor=none;points=[[0,0.5],[1,0.5]];portConstraint=eastwest;top=0;left=0;right=0;bottom=0;" vertex="1" parent="5F1so2sVHpjkK_AZKTsR-37">
                    <mxGeometry y="240" width="250" height="30" as="geometry"/>
                </mxCell>
                <mxCell id="55" value="" style="shape=partialRectangle;overflow=hidden;connectable=0;fillColor=none;top=0;left=0;bottom=0;right=0;" vertex="1" parent="54">
                    <mxGeometry width="30" height="30" as="geometry"/>
                </mxCell>
                <mxCell id="56" value="id ID" style="shape=partialRectangle;overflow=hidden;connectable=0;fillColor=none;top=0;left=0;bottom=0;right=0;align=left;spacingLeft=6;" vertex="1" parent="54">
                    <mxGeometry x="30" width="220" height="30" as="geometry"/>
                </mxCell>
                <mxCell id="5F1so2sVHpjkK_AZKTsR-50" value="ResultSchema {&lt;br&gt;&lt;span style=&quot;white-space: pre&quot;&gt;&#9;&lt;/span&gt;result: String,&lt;br&gt;&lt;span style=&quot;white-space: pre&quot;&gt;&#9;&lt;/span&gt;penalty: String&lt;br&gt;}" style="text;html=1;strokeColor=none;fillColor=none;align=left;verticalAlign=middle;whiteSpace=wrap;rounded=0;" parent="1" vertex="1">
                    <mxGeometry x="710" y="430" width="250" height="80" as="geometry"/>
                </mxCell>
                <mxCell id="5F1so2sVHpjkK_AZKTsR-60" value="Results" style="shape=table;startSize=30;container=1;collapsible=1;childLayout=tableLayout;fixedRows=1;rowLines=0;fontStyle=1;align=center;resizeLast=1;" parent="1" vertex="1">
                    <mxGeometry x="120" y="620" width="250" height="340" as="geometry"/>
                </mxCell>
                <mxCell id="5F1so2sVHpjkK_AZKTsR-61" value="" style="shape=partialRectangle;collapsible=0;dropTarget=0;pointerEvents=0;fillColor=none;points=[[0,0.5],[1,0.5]];portConstraint=eastwest;top=0;left=0;right=0;bottom=1;" parent="5F1so2sVHpjkK_AZKTsR-60" vertex="1">
                    <mxGeometry y="30" width="250" height="30" as="geometry"/>
                </mxCell>
                <mxCell id="5F1so2sVHpjkK_AZKTsR-62" value="PK" style="shape=partialRectangle;overflow=hidden;connectable=0;fillColor=none;top=0;left=0;bottom=0;right=0;fontStyle=1;" parent="5F1so2sVHpjkK_AZKTsR-61" vertex="1">
                    <mxGeometry width="30" height="30" as="geometry"/>
                </mxCell>
                <mxCell id="5F1so2sVHpjkK_AZKTsR-63" value="contest_id ID" style="shape=partialRectangle;overflow=hidden;connectable=0;fillColor=none;top=0;left=0;bottom=0;right=0;align=left;spacingLeft=6;fontStyle=5;" parent="5F1so2sVHpjkK_AZKTsR-61" vertex="1">
                    <mxGeometry x="30" width="220" height="30" as="geometry"/>
                </mxCell>
                <mxCell id="5F1so2sVHpjkK_AZKTsR-64" value="" style="shape=partialRectangle;collapsible=0;dropTarget=0;pointerEvents=0;fillColor=none;points=[[0,0.5],[1,0.5]];portConstraint=eastwest;top=0;left=0;right=0;bottom=1;" parent="5F1so2sVHpjkK_AZKTsR-60" vertex="1">
                    <mxGeometry y="60" width="250" height="30" as="geometry"/>
                </mxCell>
                <mxCell id="5F1so2sVHpjkK_AZKTsR-65" value="SK" style="shape=partialRectangle;overflow=hidden;connectable=0;fillColor=none;top=0;left=0;bottom=0;right=0;fontStyle=1;" parent="5F1so2sVHpjkK_AZKTsR-64" vertex="1">
                    <mxGeometry width="30" height="30" as="geometry"/>
                </mxCell>
                <mxCell id="5F1so2sVHpjkK_AZKTsR-66" value="contest_type String" style="shape=partialRectangle;overflow=hidden;connectable=0;fillColor=none;top=0;left=0;bottom=0;right=0;align=left;spacingLeft=6;fontStyle=5;" parent="5F1so2sVHpjkK_AZKTsR-64" vertex="1">
                    <mxGeometry x="30" width="220" height="30" as="geometry"/>
                </mxCell>
                <mxCell id="5F1so2sVHpjkK_AZKTsR-67" value="" style="shape=partialRectangle;collapsible=0;dropTarget=0;pointerEvents=0;fillColor=none;points=[[0,0.5],[1,0.5]];portConstraint=eastwest;top=0;left=0;right=0;bottom=0;" parent="5F1so2sVHpjkK_AZKTsR-60" vertex="1">
                    <mxGeometry y="90" width="250" height="30" as="geometry"/>
                </mxCell>
                <mxCell id="5F1so2sVHpjkK_AZKTsR-68" value="" style="shape=partialRectangle;overflow=hidden;connectable=0;fillColor=none;top=0;left=0;bottom=0;right=0;" parent="5F1so2sVHpjkK_AZKTsR-67" vertex="1">
                    <mxGeometry width="30" height="30" as="geometry"/>
                </mxCell>
                <mxCell id="5F1so2sVHpjkK_AZKTsR-69" value="no1 ResultSchema" style="shape=partialRectangle;overflow=hidden;connectable=0;fillColor=none;top=0;left=0;bottom=0;right=0;align=left;spacingLeft=6;" parent="5F1so2sVHpjkK_AZKTsR-67" vertex="1">
                    <mxGeometry x="30" width="220" height="30" as="geometry"/>
                </mxCell>
                <mxCell id="5F1so2sVHpjkK_AZKTsR-70" value="" style="shape=partialRectangle;collapsible=0;dropTarget=0;pointerEvents=0;fillColor=none;points=[[0,0.5],[1,0.5]];portConstraint=eastwest;top=0;left=0;right=0;bottom=0;" parent="5F1so2sVHpjkK_AZKTsR-60" vertex="1">
                    <mxGeometry y="120" width="250" height="30" as="geometry"/>
                </mxCell>
                <mxCell id="5F1so2sVHpjkK_AZKTsR-71" value="" style="shape=partialRectangle;overflow=hidden;connectable=0;fillColor=none;top=0;left=0;bottom=0;right=0;" parent="5F1so2sVHpjkK_AZKTsR-70" vertex="1">
                    <mxGeometry width="30" height="30" as="geometry"/>
                </mxCell>
                <mxCell id="5F1so2sVHpjkK_AZKTsR-72" value="no2 ResultSchema" style="shape=partialRectangle;overflow=hidden;connectable=0;fillColor=none;top=0;left=0;bottom=0;right=0;align=left;spacingLeft=6;" parent="5F1so2sVHpjkK_AZKTsR-70" vertex="1">
                    <mxGeometry x="30" width="220" height="30" as="geometry"/>
                </mxCell>
                <mxCell id="5F1so2sVHpjkK_AZKTsR-73" value="" style="shape=partialRectangle;collapsible=0;dropTarget=0;pointerEvents=0;fillColor=none;points=[[0,0.5],[1,0.5]];portConstraint=eastwest;top=0;left=0;right=0;bottom=0;" parent="5F1so2sVHpjkK_AZKTsR-60" vertex="1">
                    <mxGeometry y="150" width="250" height="30" as="geometry"/>
                </mxCell>
                <mxCell id="5F1so2sVHpjkK_AZKTsR-74" value="" style="shape=partialRectangle;overflow=hidden;connectable=0;fillColor=none;top=0;left=0;bottom=0;right=0;" parent="5F1so2sVHpjkK_AZKTsR-73" vertex="1">
                    <mxGeometry width="30" height="30" as="geometry"/>
                </mxCell>
                <mxCell id="5F1so2sVHpjkK_AZKTsR-75" value="no3 ResultSchema" style="shape=partialRectangle;overflow=hidden;connectable=0;fillColor=none;top=0;left=0;bottom=0;right=0;align=left;spacingLeft=6;" parent="5F1so2sVHpjkK_AZKTsR-73" vertex="1">
                    <mxGeometry x="30" width="220" height="30" as="geometry"/>
                </mxCell>
                <mxCell id="5F1so2sVHpjkK_AZKTsR-76" value="" style="shape=partialRectangle;collapsible=0;dropTarget=0;pointerEvents=0;fillColor=none;points=[[0,0.5],[1,0.5]];portConstraint=eastwest;top=0;left=0;right=0;bottom=0;" parent="5F1so2sVHpjkK_AZKTsR-60" vertex="1">
                    <mxGeometry y="180" width="250" height="30" as="geometry"/>
                </mxCell>
                <mxCell id="5F1so2sVHpjkK_AZKTsR-77" value="" style="shape=partialRectangle;overflow=hidden;connectable=0;fillColor=none;top=0;left=0;bottom=0;right=0;" parent="5F1so2sVHpjkK_AZKTsR-76" vertex="1">
                    <mxGeometry width="30" height="30" as="geometry"/>
                </mxCell>
                <mxCell id="5F1so2sVHpjkK_AZKTsR-78" value="no4 ResultSchema" style="shape=partialRectangle;overflow=hidden;connectable=0;fillColor=none;top=0;left=0;bottom=0;right=0;align=left;spacingLeft=6;" parent="5F1so2sVHpjkK_AZKTsR-76" vertex="1">
                    <mxGeometry x="30" width="220" height="30" as="geometry"/>
                </mxCell>
                <mxCell id="5F1so2sVHpjkK_AZKTsR-79" value="" style="shape=partialRectangle;collapsible=0;dropTarget=0;pointerEvents=0;fillColor=none;points=[[0,0.5],[1,0.5]];portConstraint=eastwest;top=0;left=0;right=0;bottom=0;" parent="5F1so2sVHpjkK_AZKTsR-60" vertex="1">
                    <mxGeometry y="210" width="250" height="30" as="geometry"/>
                </mxCell>
                <mxCell id="5F1so2sVHpjkK_AZKTsR-80" value="" style="shape=partialRectangle;overflow=hidden;connectable=0;fillColor=none;top=0;left=0;bottom=0;right=0;" parent="5F1so2sVHpjkK_AZKTsR-79" vertex="1">
                    <mxGeometry width="30" height="30" as="geometry"/>
                </mxCell>
                <mxCell id="5F1so2sVHpjkK_AZKTsR-81" value="no5 ResultSchema" style="shape=partialRectangle;overflow=hidden;connectable=0;fillColor=none;top=0;left=0;bottom=0;right=0;align=left;spacingLeft=6;" parent="5F1so2sVHpjkK_AZKTsR-79" vertex="1">
                    <mxGeometry x="30" width="220" height="30" as="geometry"/>
                </mxCell>
                <mxCell id="5F1so2sVHpjkK_AZKTsR-82" value="" style="shape=partialRectangle;collapsible=0;dropTarget=0;pointerEvents=0;fillColor=none;points=[[0,0.5],[1,0.5]];portConstraint=eastwest;top=0;left=0;right=0;bottom=0;" parent="5F1so2sVHpjkK_AZKTsR-60" vertex="1">
                    <mxGeometry y="240" width="250" height="30" as="geometry"/>
                </mxCell>
                <mxCell id="5F1so2sVHpjkK_AZKTsR-83" value="LSI" style="shape=partialRectangle;overflow=hidden;connectable=0;fillColor=none;top=0;left=0;bottom=0;right=0;" parent="5F1so2sVHpjkK_AZKTsR-82" vertex="1">
                    <mxGeometry width="30" height="30" as="geometry"/>
                </mxCell>
                <mxCell id="5F1so2sVHpjkK_AZKTsR-84" value="best String" style="shape=partialRectangle;overflow=hidden;connectable=0;fillColor=none;top=0;left=0;bottom=0;right=0;align=left;spacingLeft=6;" parent="5F1so2sVHpjkK_AZKTsR-82" vertex="1">
                    <mxGeometry x="30" width="220" height="30" as="geometry"/>
                </mxCell>
                <mxCell id="5F1so2sVHpjkK_AZKTsR-85" value="" style="shape=partialRectangle;collapsible=0;dropTarget=0;pointerEvents=0;fillColor=none;points=[[0,0.5],[1,0.5]];portConstraint=eastwest;top=0;left=0;right=0;bottom=0;" parent="5F1so2sVHpjkK_AZKTsR-60" vertex="1">
                    <mxGeometry y="270" width="250" height="30" as="geometry"/>
                </mxCell>
                <mxCell id="5F1so2sVHpjkK_AZKTsR-86" value="LSI" style="shape=partialRectangle;overflow=hidden;connectable=0;fillColor=none;top=0;left=0;bottom=0;right=0;" parent="5F1so2sVHpjkK_AZKTsR-85" vertex="1">
                    <mxGeometry width="30" height="30" as="geometry"/>
                </mxCell>
                <mxCell id="5F1so2sVHpjkK_AZKTsR-87" value="average String" style="shape=partialRectangle;overflow=hidden;connectable=0;fillColor=none;top=0;left=0;bottom=0;right=0;align=left;spacingLeft=6;" parent="5F1so2sVHpjkK_AZKTsR-85" vertex="1">
                    <mxGeometry x="30" width="220" height="30" as="geometry"/>
                </mxCell>
                <mxCell id="5F1so2sVHpjkK_AZKTsR-88" value="" style="shape=partialRectangle;collapsible=0;dropTarget=0;pointerEvents=0;fillColor=none;points=[[0,0.5],[1,0.5]];portConstraint=eastwest;top=0;left=0;right=0;bottom=0;" parent="5F1so2sVHpjkK_AZKTsR-60" vertex="1">
                    <mxGeometry y="300" width="250" height="30" as="geometry"/>
                </mxCell>
                <mxCell id="5F1so2sVHpjkK_AZKTsR-89" value="LSI&#10;FK" style="shape=partialRectangle;overflow=hidden;connectable=0;fillColor=none;top=0;left=0;bottom=0;right=0;" parent="5F1so2sVHpjkK_AZKTsR-88" vertex="1">
                    <mxGeometry width="30" height="30" as="geometry"/>
                </mxCell>
                <mxCell id="5F1so2sVHpjkK_AZKTsR-90" value="user_id String" style="shape=partialRectangle;overflow=hidden;connectable=0;fillColor=none;top=0;left=0;bottom=0;right=0;align=left;spacingLeft=6;" parent="5F1so2sVHpjkK_AZKTsR-88" vertex="1">
                    <mxGeometry x="30" width="220" height="30" as="geometry"/>
                </mxCell>
                <mxCell id="26" value="Events" style="shape=table;startSize=30;container=1;collapsible=1;childLayout=tableLayout;fixedRows=1;rowLines=0;fontStyle=1;align=center;resizeLast=1;" vertex="1" parent="1">
                    <mxGeometry x="120" y="410" width="250" height="190" as="geometry"/>
                </mxCell>
                <mxCell id="27" value="" style="shape=partialRectangle;collapsible=0;dropTarget=0;pointerEvents=0;fillColor=none;points=[[0,0.5],[1,0.5]];portConstraint=eastwest;top=0;left=0;right=0;bottom=1;" vertex="1" parent="26">
                    <mxGeometry y="30" width="250" height="30" as="geometry"/>
                </mxCell>
                <mxCell id="28" value="PK" style="shape=partialRectangle;overflow=hidden;connectable=0;fillColor=none;top=0;left=0;bottom=0;right=0;fontStyle=1;" vertex="1" parent="27">
                    <mxGeometry width="30" height="30" as="geometry"/>
                </mxCell>
                <mxCell id="29" value="event_type String" style="shape=partialRectangle;overflow=hidden;connectable=0;fillColor=none;top=0;left=0;bottom=0;right=0;align=left;spacingLeft=6;fontStyle=5;" vertex="1" parent="27">
                    <mxGeometry x="30" width="220" height="30" as="geometry"/>
                </mxCell>
                <mxCell id="30" value="" style="shape=partialRectangle;collapsible=0;dropTarget=0;pointerEvents=0;fillColor=none;points=[[0,0.5],[1,0.5]];portConstraint=eastwest;top=0;left=0;right=0;bottom=1;" vertex="1" parent="26">
                    <mxGeometry y="60" width="250" height="30" as="geometry"/>
                </mxCell>
                <mxCell id="31" value="SK&#10;FK" style="shape=partialRectangle;overflow=hidden;connectable=0;fillColor=none;top=0;left=0;bottom=0;right=0;fontStyle=1;" vertex="1" parent="30">
                    <mxGeometry width="30" height="30" as="geometry"/>
                </mxCell>
                <mxCell id="32" value="contest_id ID" style="shape=partialRectangle;overflow=hidden;connectable=0;fillColor=none;top=0;left=0;bottom=0;right=0;align=left;spacingLeft=6;fontStyle=5;" vertex="1" parent="30">
                    <mxGeometry x="30" width="220" height="30" as="geometry"/>
                </mxCell>
                <mxCell id="33" value="" style="shape=partialRectangle;collapsible=0;dropTarget=0;pointerEvents=0;fillColor=none;points=[[0,0.5],[1,0.5]];portConstraint=eastwest;top=0;left=0;right=0;bottom=0;" vertex="1" parent="26">
                    <mxGeometry y="90" width="250" height="30" as="geometry"/>
                </mxCell>
                <mxCell id="34" value="" style="shape=partialRectangle;overflow=hidden;connectable=0;fillColor=none;top=0;left=0;bottom=0;right=0;" vertex="1" parent="33">
                    <mxGeometry width="30" height="30" as="geometry"/>
                </mxCell>
                <mxCell id="35" value="id ID" style="shape=partialRectangle;overflow=hidden;connectable=0;fillColor=none;top=0;left=0;bottom=0;right=0;align=left;spacingLeft=6;" vertex="1" parent="33">
                    <mxGeometry x="30" width="220" height="30" as="geometry"/>
                </mxCell>
                <mxCell id="36" value="" style="shape=partialRectangle;collapsible=0;dropTarget=0;pointerEvents=0;fillColor=none;points=[[0,0.5],[1,0.5]];portConstraint=eastwest;top=0;left=0;right=0;bottom=0;" vertex="1" parent="26">
                    <mxGeometry y="120" width="250" height="30" as="geometry"/>
                </mxCell>
                <mxCell id="37" value="FK" style="shape=partialRectangle;overflow=hidden;connectable=0;fillColor=none;top=0;left=0;bottom=0;right=0;" vertex="1" parent="36">
                    <mxGeometry width="30" height="30" as="geometry"/>
                </mxCell>
                <mxCell id="38" value="scramble_id ID" style="shape=partialRectangle;overflow=hidden;connectable=0;fillColor=none;top=0;left=0;bottom=0;right=0;align=left;spacingLeft=6;" vertex="1" parent="36">
                    <mxGeometry x="30" width="220" height="30" as="geometry"/>
                </mxCell>
                <mxCell id="39" value="" style="shape=partialRectangle;collapsible=0;dropTarget=0;pointerEvents=0;fillColor=none;points=[[0,0.5],[1,0.5]];portConstraint=eastwest;top=0;left=0;right=0;bottom=0;" vertex="1" parent="26">
                    <mxGeometry y="150" width="250" height="30" as="geometry"/>
                </mxCell>
                <mxCell id="40" value="" style="shape=partialRectangle;overflow=hidden;connectable=0;fillColor=none;top=0;left=0;bottom=0;right=0;" vertex="1" parent="39">
                    <mxGeometry width="30" height="30" as="geometry"/>
                </mxCell>
                <mxCell id="41" value="entry_count Int" style="shape=partialRectangle;overflow=hidden;connectable=0;fillColor=none;top=0;left=0;bottom=0;right=0;align=left;spacingLeft=6;" vertex="1" parent="39">
                    <mxGeometry x="30" width="220" height="30" as="geometry"/>
                </mxCell>
            </root>
        </mxGraphModel>
    </diagram>
    <diagram id="D1ymecOivfcoovRXdPYH" name="ページ2">
        <mxGraphModel dx="296" dy="446" grid="1" gridSize="10" guides="1" tooltips="1" connect="1" arrows="1" fold="1" page="1" pageScale="1" pageWidth="827" pageHeight="1169" math="0" shadow="0">
            <root>
                <mxCell id="h8-9qp1VN4By4Z55_MOs-0"/>
                <mxCell id="h8-9qp1VN4By4Z55_MOs-1" parent="h8-9qp1VN4By4Z55_MOs-0"/>
            </root>
        </mxGraphModel>
    </diagram>
</mxfile>